<svg width="26" height="27" viewBox="0 0 26 27" fill="none" xmlns="http://www.w3.org/2000/svg">
<path d="M14.6434 24.9641L14.6434 6.34744L22.7767 14.4808C23.4267 15.1308 24.4934 15.1308 25.1434 14.4808C25.2979 14.3266 25.4204 14.1434 25.5041 13.9418C25.5877 13.7402 25.6308 13.5241 25.6308 13.3058C25.6308 13.0875 25.5877 12.8714 25.5041 12.6697C25.4204 12.4681 25.2979 12.285 25.1434 12.1308L14.16 1.14744C14.0058 0.992935 13.8227 0.870356 13.6211 0.78672C13.4194 0.703084 13.2033 0.660034 12.985 0.660034C12.7667 0.660034 12.5506 0.703084 12.349 0.78672C12.1474 0.870355 11.9642 0.992935 11.81 1.14744L0.826694 12.1308C0.672391 12.2851 0.549993 12.4683 0.466485 12.6699C0.382976 12.8715 0.339996 13.0876 0.339996 13.3058C0.339996 13.524 0.382976 13.7401 0.466485 13.9417C0.549993 14.1433 0.672391 14.3265 0.826694 14.4808C0.980997 14.6351 1.16418 14.7575 1.36579 14.841C1.5674 14.9245 1.78348 14.9675 2.0017 14.9675C2.21991 14.9675 2.43599 14.9245 2.6376 14.841C2.83921 14.7575 3.02239 14.6351 3.1767 14.4808L11.31 6.34744L11.31 24.9641C11.31 25.8808 12.06 26.6308 12.9767 26.6308C13.8934 26.6308 14.6434 25.8808 14.6434 24.9641Z" fill="#30307A" fill-opacity="0.76"/>
</svg>
